<svg width="151" height="48" viewBox="0 0 151 48" fill="none" xmlns="http://www.w3.org/2000/svg">
<path fill-rule="evenodd" clip-rule="evenodd" d="M11.5 48C17.8513 48 23 42.8513 23 36.5C23 30.1487 17.8513 25 11.5 25C5.14873 25 0 30.1487 0 36.5C0 42.8513 5.14873 48 11.5 48ZM47.9795 25C47.4689 37.4594 37.4594 47.4689 25 47.9795L25 25H47.9795V25ZM36.5 23C42.8513 23 48 17.8513 48 11.5C48 5.14873 42.8513 0 36.5 0C30.1487 0 25 5.14873 25 11.5C25 17.8513 30.1487 23 36.5 23ZM0.0205082 23C0.531178 10.5406 10.5406 0.531126 23 0.0204563L23.0001 23H0.0205078L0.0205082 23Z" fill="#fff"/>
<path d="M62.6104 25.249C62.6221 25.7295 62.7979 26.1016 63.1377 26.3652C63.4834 26.6289 63.9492 26.7607 64.5352 26.7607C65.0859 26.7607 65.5195 26.6436 65.8359 26.4092C66.1582 26.1748 66.3193 25.8584 66.3193 25.46C66.3193 25.2549 66.2783 25.0791 66.1963 24.9326C66.1201 24.7803 66 24.6602 65.8359 24.5723C65.6777 24.4785 65.5576 24.417 65.4756 24.3877C65.3994 24.3584 65.2793 24.3203 65.1152 24.2734L63.5068 23.8252C61.8252 23.3799 60.9873 22.5215 60.9932 21.25C60.9932 20.4355 61.3037 19.7764 61.9248 19.2725C62.5518 18.7686 63.375 18.5166 64.3945 18.5166C65.4258 18.5166 66.2607 18.7715 66.8994 19.2812C67.5439 19.791 67.8662 20.4707 67.8662 21.3203H66.0645C66.0527 20.8867 65.8945 20.5527 65.5898 20.3184C65.2852 20.0781 64.8867 19.958 64.3945 19.958C63.8906 19.958 63.498 20.0664 63.2168 20.2832C62.9414 20.4941 62.8037 20.7871 62.8037 21.1621C62.8037 21.5078 62.9209 21.7598 63.1553 21.918C63.3896 22.0703 63.7588 22.2139 64.2627 22.3486L65.9414 22.7793C67.418 23.1777 68.1562 24.0303 68.1562 25.3369C68.1562 26.1982 67.8223 26.8867 67.1543 27.4023C66.4863 27.918 65.6074 28.1758 64.5176 28.1758C63.416 28.1758 62.5254 27.9092 61.8457 27.376C61.166 26.8428 60.8145 26.1338 60.791 25.249H62.6104ZM69.431 23.377C69.431 21.9238 69.8177 20.752 70.5912 19.8613C71.3646 18.9648 72.3929 18.5166 73.6761 18.5166C74.9652 18.5166 75.9935 18.9648 76.7611 19.8613C77.5287 20.752 77.9125 21.9238 77.9125 23.377C77.9125 24.8418 77.5199 26.0078 76.7347 26.875C75.9496 27.7422 74.933 28.1758 73.6849 28.1758C72.4252 28.1758 71.3998 27.7451 70.6088 26.8838C69.8236 26.0225 69.431 24.8535 69.431 23.377ZM71.2855 23.3594C71.2855 24.4023 71.5052 25.2051 71.9447 25.7676C72.3841 26.3301 72.9584 26.6113 73.6673 26.6113C74.388 26.6113 74.9623 26.3242 75.39 25.75C75.8236 25.1758 76.0404 24.373 76.0404 23.3418C76.0404 22.3047 75.8265 21.502 75.3988 20.9336C74.9711 20.3652 74.3998 20.0811 73.6849 20.0811C72.9525 20.0811 72.3695 20.3711 71.9359 20.9512C71.5023 21.5254 71.2855 22.3281 71.2855 23.3594ZM85.8933 18.6924H87.7126V28H86.0691L85.9284 26.4531C85.7116 26.9805 85.3366 27.3994 84.8034 27.71C84.2702 28.0205 83.655 28.1758 82.9577 28.1758C81.9734 28.1758 81.1999 27.8652 80.6374 27.2441C80.0749 26.6172 79.7937 25.7822 79.7937 24.7393V18.6924H81.613V24.2734C81.613 25.8438 82.2663 26.6289 83.573 26.6289C84.3523 26.6289 84.9323 26.3682 85.3132 25.8467C85.6999 25.3252 85.8933 24.6338 85.8933 23.7725V18.6924ZM90.297 28V18.6924H91.9317L92.1163 20.2217C92.3565 19.7178 92.755 19.3076 93.3116 18.9912C93.8682 18.6748 94.4718 18.5166 95.1222 18.5166C96.1651 18.5166 96.962 18.8271 97.5128 19.4482C98.0636 20.0635 98.3389 20.9512 98.3389 22.1113V28H96.5284V22.3838C96.5284 20.8486 95.878 20.0811 94.5772 20.0811C93.7628 20.0811 93.1475 20.3447 92.7315 20.8721C92.3214 21.3994 92.1163 22.041 92.1163 22.7969V28H90.297ZM104.061 28.1758C102.907 28.1758 101.975 27.7451 101.266 26.8838C100.557 26.0225 100.203 24.8652 100.203 23.4121C100.203 21.9473 100.569 20.7725 101.301 19.8877C102.034 18.9971 103 18.5518 104.202 18.5518C105.508 18.5518 106.443 19.0615 107.005 20.0811V14.5H108.825V28H107.19L107.137 26.3477C106.932 26.9102 106.545 27.3555 105.977 27.6836C105.409 28.0117 104.77 28.1758 104.061 28.1758ZM104.527 26.6289C105.248 26.6289 105.828 26.377 106.267 25.873C106.712 25.3691 106.958 24.71 107.005 23.8955V22.8145C106.958 22 106.712 21.3438 106.267 20.8457C105.828 20.3477 105.248 20.0986 104.527 20.0986C103.748 20.0986 103.144 20.3945 102.716 20.9863C102.289 21.5723 102.075 22.375 102.075 23.3945C102.075 24.4258 102.294 25.2227 102.734 25.7852C103.173 26.3477 103.771 26.6289 104.527 26.6289ZM115.004 28.1582C113.181 28.1582 112.27 27.1709 112.27 25.1963V20.2217H110.346V18.6924H111.137C111.57 18.6924 111.866 18.6045 112.024 18.4287C112.188 18.2471 112.27 17.9629 112.27 17.5762V16.0996H114.072V18.6924H116.304V20.2217H114.072V24.9238C114.072 25.5332 114.18 25.9668 114.397 26.2246C114.614 26.4824 114.974 26.6113 115.478 26.6113C115.695 26.6113 115.971 26.5879 116.304 26.541V28C115.783 28.1055 115.349 28.1582 115.004 28.1582ZM122.044 18.6221C122.308 18.6221 122.542 18.6455 122.747 18.6924V20.292C122.589 20.2686 122.396 20.2568 122.167 20.2568C120.609 20.2568 119.829 21.1445 119.829 22.9199V28H118.01V18.6924H119.592L119.794 19.9932C119.952 19.5596 120.236 19.2227 120.647 18.9824C121.063 18.7422 121.528 18.6221 122.044 18.6221ZM131.748 26.6816C131.83 26.6816 131.932 26.6699 132.055 26.6465V28C131.756 28.082 131.446 28.123 131.124 28.123C130.069 28.123 129.509 27.584 129.445 26.5059C129.228 27.0215 128.847 27.4287 128.302 27.7275C127.757 28.0264 127.13 28.1758 126.421 28.1758C125.507 28.1758 124.778 27.9238 124.233 27.4199C123.688 26.916 123.416 26.2393 123.416 25.3896C123.416 24.5283 123.694 23.8516 124.251 23.3594C124.813 22.8672 125.543 22.583 126.439 22.5068L128.443 22.3135C128.625 22.3018 128.768 22.2812 128.874 22.252C128.979 22.2227 129.082 22.1377 129.181 21.9971C129.287 21.8564 129.339 21.666 129.339 21.4258C129.339 20.9453 129.178 20.5879 128.856 20.3535C128.54 20.1133 128.106 19.9932 127.555 19.9932C126.934 19.9932 126.427 20.1367 126.035 20.4238C125.648 20.7109 125.417 21.1006 125.34 21.5928H123.565C123.7 20.6084 124.125 19.8496 124.839 19.3164C125.56 18.7832 126.483 18.5166 127.608 18.5166C128.821 18.5166 129.72 18.8066 130.306 19.3867C130.898 19.9668 131.194 20.7666 131.194 21.7861V25.9082C131.194 26.4238 131.378 26.6816 131.748 26.6816ZM129.392 24.0186V23.5527L126.949 23.7549C125.818 23.8604 125.252 24.3701 125.252 25.2842C125.252 25.7295 125.399 26.0752 125.692 26.3213C125.985 26.5615 126.377 26.6816 126.87 26.6816C127.614 26.6816 128.22 26.4297 128.689 25.9258C129.158 25.4219 129.392 24.7861 129.392 24.0186ZM133.058 23.377C133.058 21.8652 133.453 20.6787 134.244 19.8174C135.041 18.9502 136.081 18.5166 137.364 18.5166C138.431 18.5166 139.315 18.8213 140.018 19.4307C140.722 20.0342 141.138 20.834 141.266 21.8301H139.377C139.295 21.3027 139.06 20.8809 138.674 20.5645C138.293 20.2422 137.824 20.0811 137.267 20.0811C136.547 20.0811 135.975 20.3594 135.554 20.916C135.138 21.4727 134.93 22.2871 134.93 23.3594C134.93 24.4141 135.141 25.2197 135.562 25.7764C135.984 26.333 136.553 26.6113 137.267 26.6113C137.83 26.6113 138.302 26.4502 138.683 26.1279C139.063 25.8057 139.295 25.3867 139.377 24.8711H141.266C141.132 25.8672 140.698 26.667 139.966 27.2705C139.239 27.874 138.328 28.1758 137.232 28.1758C135.961 28.1758 134.947 27.748 134.191 26.8926C133.435 26.0371 133.058 24.8652 133.058 23.377ZM150.988 18.6924L147.639 22.0234L150.882 28H148.834L146.364 23.2979L144.686 24.959V28H142.893V14.5H144.686V22.7441L148.702 18.6924H150.988Z" fill="#fff"/>
</svg>
